<?xml version="1.0" encoding="utf-8"?>
<!-- Generator: Adobe Illustrator 18.0.0, SVG Export Plug-In . SVG Version: 6.00 Build 0)  -->
<!DOCTYPE svg PUBLIC "-//W3C//DTD SVG 1.0//EN" "http://www.w3.org/TR/2001/REC-SVG-20010904/DTD/svg10.dtd">
<svg version="1.0" id="Layer_1" xmlns="http://www.w3.org/2000/svg" xmlns:xlink="http://www.w3.org/1999/xlink" x="0px" y="0px"
	 viewBox="0 0 800 800" enable-background="new 0 0 800 800" xml:space="preserve">
<g id="Layer_8">
	<polygon fill="#FFFFFF" stroke="#000000" stroke-width="3" stroke-miterlimit="10" points="479.9,285.6 560.4,256.4 363.1,206.8 
		250.3,242.5 322.4,279.3 	"/>
	<polyline fill="#FFFFFF" stroke="#000000" stroke-width="3" stroke-miterlimit="10" points="324.7,241 322.4,298.6 473.3,305.2 
		488.1,260.8 324.7,241 	"/>
	<g>
		<path fill="#010101" d="M359.9,295.8c0,2.5,6,4.6,13.3,4.6c7.4,0,13.3-2,13.3-4.6c0-2.5-6-4.6-13.3-4.6
			C365.9,291.2,359.9,293.3,359.9,295.8"/>
		<path fill="#010101" d="M407.5,297.6c0,2.9,6.1,5.3,13.6,5.3c7.5,0,13.6-2.4,13.6-5.3c0-2.9-6.1-5.3-13.6-5.3
			C413.6,292.2,407.5,294.6,407.5,297.6"/>
	</g>
	<polygon fill="#FFFFFF" stroke="#000000" stroke-width="3" stroke-miterlimit="10" points="560.4,521.4 577.4,467.2 573.3,440.3 
		499.8,440.3 488.1,357.8 475.2,346 311.5,345.4 293.1,355.1 279.6,438.5 234.3,543.7 267.9,562.2 285,558.1 479.4,469.6 
		524.6,493.7 	"/>
	<path fill="#FFFFFF" stroke="#000000" stroke-width="3" stroke-miterlimit="10" d="M322.4,298.6c0,0-22.1,97-37,150.5
		c30.9,25.5-46.8,248.7-95.1,340.7c12.1,8.5,53.5-27.3,53.5-27.3l20,27.3l34.4-31.6l25.8,31.6l31.2-21.1l26.1,22.2l48.8-24.1l4.7,17
		l61,6.8l42-17.1l41,17.1c0,0,25.3,4.5,29.6-0.9c-56.7-76.9-89.8-219.5-130.5-324c0-77.5-4.6-161.3-4.6-161.3L322.4,298.6z"/>
	<line fill="none" stroke="#000000" stroke-width="3" stroke-miterlimit="10" x1="329.9" y1="545.5" x2="293.1" y2="586.3"/>
	<line fill="none" stroke="#000000" stroke-width="3" stroke-miterlimit="10" x1="460.5" y1="545.5" x2="495.1" y2="589"/>
	<line fill="none" stroke="#000000" stroke-width="2" stroke-miterlimit="10" x1="326" y1="455.9" x2="460.4" y2="464.1"/>
	<line fill="none" stroke="#000000" stroke-width="3" stroke-miterlimit="10" x1="499.8" y1="440.3" x2="494" y2="445.8"/>
</g>
<g id="Layer_2">
	<g id="zauberstab_x5F_gross">
		<g>
			
				<rect x="609.3" y="166.4" transform="matrix(0.8397 -0.5431 0.5431 0.8397 -3.2671 377.0349)" display="none" fill="#B8529E" width="55.3" height="55.3"/>
			<line fill="none" stroke="#FF00FF" stroke-width="6" stroke-miterlimit="10" x1="630.9" y1="220" x2="496.9" y2="793.4"/>
			<path fill="#FF00FF" d="M617.9,190l23.2-15l15,23.2l-23.2,15L617.9,190z M628.8,232.3l46.4-30l-30-46.4l-46.4,30L628.8,232.3z"/>
		</g>
	</g>
	<g id="Layer_4">
		<path fill="#FFFFFF" stroke="#000000" stroke-width="3" stroke-miterlimit="10" d="M425.8,8.9l-45.4,31.2l-25.6,96.3
			c3.1-5.2-28.7-32.6-42.1-56.9c-11.5,12.6,15.4,89.7,15.4,89.7L199.8,270.6L336.2,243l145.9,23.9l126.3,7.4l-139.5-90.6
			c8.4,5.5,80.8-89.6,61.2-127.5c-9.6,25.7-82.1,98-82.1,98l-35-93.6L425.8,8.9z"/>
		<line fill="none" stroke="#000000" stroke-width="2" stroke-miterlimit="10" x1="413" y1="60.6" x2="397.4" y2="52.4"/>
	</g>
	<polygon fill="#FF00FF" points="552.1,726 572.9,744.6 552.2,763.3 531.3,744.7 	"/>
	
		<rect x="251.1" y="235.5" transform="matrix(0.435 0.9004 -0.9004 0.435 364.104 -95.3198)" fill="#FF00FF" width="13.9" height="13.9"/>
	
		<rect x="319.7" y="224.5" transform="matrix(0.5577 0.83 -0.83 0.5577 336.5024 -168.734)" fill="#FF00FF" width="13.9" height="13.9"/>
	
		<rect x="392.4" y="225.8" transform="matrix(0.7092 0.705 -0.705 0.7092 280.1672 -213.875)" fill="#FF00FF" width="13.9" height="13.9"/>
	
		<rect x="469.9" y="234.3" transform="matrix(0.7092 0.705 -0.705 0.7092 308.6854 -266.0105)" fill="#FF00FF" width="13.9" height="13.9"/>
	
		<rect x="535.9" y="244.1" transform="matrix(0.7092 0.705 -0.705 0.7092 334.7907 -309.6999)" fill="#FF00FF" width="13.9" height="13.9"/>
	<polygon fill="#FF00FF" points="473.3,732.5 494.1,751.1 473.4,769.7 452.5,751.2 	"/>
	<polygon fill="#FF00FF" points="329.5,729.5 350.3,748 329.6,766.7 308.7,748.1 	"/>
	<polygon fill="#FF00FF" points="410.8,730.3 431.7,748.9 410.9,767.6 390.1,749 	"/>
	<polygon fill="#FF00FF" points="253.6,718.5 267.1,741.9 241,754 227.5,730.6 	"/>
	<g id="Layer_6_copy">
		<path fill="#FFFFFF" stroke="#000000" stroke-width="3" stroke-miterlimit="10" d="M394.2,301.4l11.1,142.4l9.2,128.7L398.3,611
			c0,0,1,88.9,1,101.5c28,34.2,35.4,73.5,35.4,73.5"/>
	</g>
</g>
</svg>
