<?xml version="1.0" encoding="utf-8"?>
<!-- Generator: Adobe Illustrator 19.0.0, SVG Export Plug-In . SVG Version: 6.00 Build 0)  -->
<svg version="1.0" xmlns="http://www.w3.org/2000/svg" xmlns:xlink="http://www.w3.org/1999/xlink" x="0px" y="0px"
	 viewBox="0 0 800 800" style="enable-background:new 0 0 800 800;" xml:space="preserve">
<style type="text/css">
	.st0{display:none;}
	.st1{display:inline;fill:none;stroke:#000000;stroke-width:2;stroke-miterlimit:10;}
	.st2{display:inline;fill:#010101;}
	.st3{display:none;fill:#B8529E;}
	.st4{fill:none;stroke:#FF00FF;stroke-width:4;stroke-miterlimit:10;}
	.st5{fill:#FF00FF;}
	.st6{fill:#FFFFFF;stroke:#231F20;stroke-width:3;stroke-miterlimit:10;}
	.st7{fill:#010101;}
	.st8{fill:none;stroke:#231F20;stroke-width:3;stroke-miterlimit:10;}
	.st9{fill:none;stroke:#000000;stroke-width:2;stroke-miterlimit:10;}
	.st10{fill:none;stroke:#231F20;stroke-width:2;stroke-miterlimit:10;}
</style>
<g id="Layer_1" class="st0">
	<polyline class="st1" points="392.6,192.5 422.8,194.6 457,196.2 533.9,219.8 593.3,242.1 541.3,264.4 459.6,294.1 467,450.2 
		340.7,442.7 296.1,435.3 333.3,286.7 244.1,242.1 192.1,219.8 298.2,200.4 367.2,189.9 392.6,192.5 	"/>
	<path class="st2" d="M362.3,309.9c0,13.1,5.3,23.7,11.8,23.7c6.5,0,11.8-10.6,11.8-23.7c0-13.1-5.3-23.7-11.8-23.7
		C367.6,286.2,362.3,296.8,362.3,309.9"/>
	<path class="st2" d="M404.5,309.7c0,13.4,5.4,24.2,12.1,24.2c6.6,0,12.1-10.8,12.1-24.2c0-13.3-5.4-24.1-12.1-24.1
		C410,285.5,404.5,296.3,404.5,309.7"/>
	<path class="st2" d="M492.1,120.7c0,0-64.1,67.3-67.4,70.5c-2.5,0.3-28.7-1.3-28.7-1.3l-57.2-53.1l-18.4-29.5
		c-8.9,39.8,36.6,85.3,36.6,85.3l98,4.9c54.5-32.2,58.5-110.8,58.5-110.8L492.1,120.7"/>
</g>
<g id="Layer_8">
	<g id="Layer_7">
		<g>
			
				<rect x="574.3" y="362.1" transform="matrix(-0.9552 0.2958 -0.2958 -0.9552 1285.2554 578.7079)" class="st3" width="49" height="49"/>
			<line class="st4" x1="587.5" y1="407.2" x2="494.2" y2="576.5"/>
			<path class="st5" d="M583.5,378.5l23.5-7.3l7.3,23.5l-23.5,7.3L583.5,378.5z M582.7,417.3l46.8-14.5L615,355.9l-46.8,14.5
				L582.7,417.3z"/>
		</g>
	</g>
	<polyline class="st6" points="331,250.6 329,301.7 462.9,307.6 476.1,268.1 331,250.6 	"/>
	<g>
		<path class="st7" d="M362.3,309.9c0,13.1,5.3,23.7,11.8,23.7c6.5,0,11.8-10.6,11.8-23.7c0-13.1-5.3-23.7-11.8-23.7
			C367.6,286.2,362.3,296.8,362.3,309.9"/>
		<path class="st7" d="M404.5,309.7c0,13.4,5.4,24.2,12.1,24.2c6.6,0,12.1-10.8,12.1-24.2c0-13.3-5.4-24.1-12.1-24.1
			C410,285.5,404.5,296.3,404.5,309.7"/>
	</g>
	<polygon class="st6" points="494.6,539 524.6,525.4 547.5,521.2 485.2,422.3 474.7,344.7 464.2,331.7 323.7,322.9 310.4,333.8 
		292.7,417.3 239.1,532.1 281.6,527.6 292.5,534 	"/>
	<path class="st6" d="M329,301.7c0,0-19.6,78.4-32.9,131.5c27.4,25.3-41.5,264.5-84.4,355.8c10.7,8.4,47.5-27.1,47.5-27.1l17.8,27.1
		l30.5-31.4l22.9,31.4L358,768l23.2,22l43.3-23.9l4.2,16.9l54.2,6.8l37.3-16.9l36.4,16.9c0,0,22.4,4.5,26.3-0.8
		C532.5,712.7,503.1,551.6,467,448c0-76.8-4.1-140.5-4.1-140.5L329,301.7z"/>
	<line class="st8" x1="337.1" y1="521.2" x2="299" y2="573.4"/>
	<line class="st8" x1="460" y1="525.4" x2="492.2" y2="574.8"/>
	<line class="st9" x1="332.1" y1="441.3" x2="451.5" y2="448.7"/>
</g>
<g id="Layer_2">
	<g id="Layer_4">
		<path class="st6" d="M416.6,6.1l-28,36.7l-32,111.9c2.8-4.9-32.2-37.3-44.1-60.2c-10.2,11.9,21.5,86.9,21.5,86.9l-113.8,95.2
			l121-26l129.5,22.4l112.1,6.9l-123.8-85c2.4,7.3,71.7-73,54.3-108.6c-8.5,24.1-72.9,80.9-72.9,80.9L410.7,52.6L416.6,6.1z"/>
		<path class="st10" d="M410.8,53.3"/>
		<line class="st10" x1="410.7" y1="52.6" x2="398.8" y2="47.3"/>
	</g>
	
		<rect x="519.8" y="731.1" transform="matrix(-0.7092 -0.705 0.705 -0.7092 386.2037 1647.5858)" class="st5" width="26.1" height="26.1"/>
	
		<rect x="265.7" y="245.7" transform="matrix(-0.435 -0.9004 0.9004 -0.435 163.2695 606.245)" class="st5" width="12.3" height="12.3"/>
	
		<rect x="326.5" y="235.9" transform="matrix(-0.5577 -0.83 0.83 -0.5577 317.3427 653.1888)" class="st5" width="12.3" height="12.3"/>
	
		<rect x="391.1" y="237" transform="matrix(-0.7092 -0.705 0.705 -0.7092 507.5754 695.7631)" class="st5" width="12.3" height="12.3"/>
	
		<rect x="459.9" y="244.6" transform="matrix(-0.7092 -0.705 0.705 -0.7092 619.7688 757.1321)" class="st5" width="12.3" height="12.3"/>
	
		<rect x="518.5" y="253.3" transform="matrix(-0.7092 -0.705 0.705 -0.7092 713.7869 813.3091)" class="st5" width="12.3" height="12.3"/>
	
		<rect x="449.9" y="737.5" transform="matrix(-0.7092 -0.705 0.705 -0.7092 262.1201 1609.215)" class="st5" width="26.1" height="26.1"/>
	
		<rect x="322.2" y="734.5" transform="matrix(-0.7092 -0.705 0.705 -0.7092 46.06 1514.087)" class="st5" width="26.1" height="26.1"/>
	
		<rect x="394.4" y="735.4" transform="matrix(-0.7092 -0.705 0.705 -0.7092 168.8604 1566.4762)" class="st5" width="26.1" height="26.1"/>
	
		<rect x="249.3" y="722.7" transform="matrix(-0.4595 -0.8882 0.8882 -0.4595 -270.6302 1306.9059)" class="st5" width="26.1" height="26.1"/>
	<g id="Layer_6_copy">
		<path class="st6" d="M392.7,304.5l9.8,141.2l8.2,127.7l-14.4,38.2c0,0,0.9,88.2,0.9,100.7c24.9,33.9,31.4,72.9,31.4,72.9"/>
	</g>
</g>
</svg>
