<?xml version="1.0" encoding="utf-8"?>
<!-- Generator: Adobe Illustrator 18.0.0, SVG Export Plug-In . SVG Version: 6.00 Build 0)  -->
<!DOCTYPE svg PUBLIC "-//W3C//DTD SVG 1.0//EN" "http://www.w3.org/TR/2001/REC-SVG-20010904/DTD/svg10.dtd">
<svg version="1.0" id="Layer_1" xmlns="http://www.w3.org/2000/svg" xmlns:xlink="http://www.w3.org/1999/xlink" x="0px" y="0px"
	 viewBox="0 0 800 800" enable-background="new 0 0 800 800" xml:space="preserve">
<g id="Layer_8">
	<polygon fill="none" stroke="#000000" stroke-width="3" stroke-miterlimit="10" points="479.859,285.577 560.44,256.44 
		363.15,206.794 250.336,242.474 322.403,279.278 	"/>
	<polyline fill="#FFFFFF" stroke="#000000" stroke-width="3" stroke-miterlimit="10" points="324.7,240.993 322.403,298.583 
		473.327,305.175 488.127,260.774 324.7,240.993 	"/>
	<g id="eyes">
		<path id="le" fill="#010101" d="M359.942,307.838c0,14.757,5.985,26.685,13.332,26.685c7.353,0,13.339-11.928,13.339-26.685
			c0-14.742-5.986-26.678-13.339-26.678C365.928,281.16,359.942,293.096,359.942,307.838"/>
		<path id="re" fill="#010101" d="M407.534,307.573c0,15.043,6.115,27.208,13.611,27.208c7.49,0,13.604-12.165,13.604-27.208
			c0-15.029-6.114-27.194-13.604-27.194C413.649,280.38,407.534,292.544,407.534,307.573"/>
	</g>
	<polygon fill="#FFFFFF" stroke="#000000" stroke-width="3" stroke-miterlimit="10" points="560.44,521.358 566.955,464.138 
		573.269,440.31 499.791,440.31 488.127,357.782 475.224,345.991 311.487,345.403 295.861,354.781 282.328,430.357 247.331,533 
		268.983,553.045 285,558.14 479.363,469.604 524.611,493.746 	"/>
	<path fill="#FFFFFF" stroke="#000000" stroke-width="3" stroke-miterlimit="10" d="M322.403,298.583
		c0,0-22.09,97.046-37.025,150.506c30.919,25.506-46.757,248.724-95.088,340.701c12.105,8.509,53.458-27.337,53.458-27.337
		l20.047,27.337l34.366-31.608l25.774,31.608l31.158-21.099l26.118,22.211l48.804-24.127l4.734,17.035l61.022,6.826l41.995-17.078
		l41.048,17.085c0,0,25.288,4.535,29.593-0.854c-56.68-76.885-89.809-219.542-130.505-323.962c0-77.465-4.575-161.347-4.575-161.347
		L322.403,298.583z"/>
	
		<line fill="none" stroke="#000000" stroke-width="3" stroke-miterlimit="10" x1="329.897" y1="545.506" x2="293.075" y2="586.284"/>
	<line fill="none" stroke="#000000" stroke-width="3" stroke-miterlimit="10" x1="460.477" y1="545.506" x2="495.051" y2="588.96"/>
	<line fill="none" stroke="#000000" stroke-width="2" stroke-miterlimit="10" x1="325.966" y1="455.86" x2="460.402" y2="464.138"/>
	<line fill="none" stroke="#000000" stroke-width="3" stroke-miterlimit="10" x1="499.791" y1="440.31" x2="493.959" y2="445.76"/>
</g>
<g id="Layer_2">
	<g id="Layer_4">
		<path fill="#FFFFFF" stroke="#000000" stroke-width="3" stroke-miterlimit="10" d="M425.821,8.911l-45.41,31.22l-25.612,96.282
			c3.137-5.196-28.747-32.568-42.112-56.948c-11.455,12.641,15.385,89.685,15.385,89.685L199.836,270.648l136.367-27.682
			l145.894,23.89l126.31,7.404l-139.464-90.581c8.396,5.453,80.776-89.569,61.227-127.534
			c-9.586,25.723-82.137,98.021-82.137,98.021L413.05,60.591L425.821,8.911z"/>
		<line fill="none" stroke="#000000" stroke-width="2" stroke-miterlimit="10" x1="413.05" y1="60.591" x2="397.44" y2="52.429"/>
	</g>
	<g id="zauberstab_x5F_gross">
		<g>
			
				<rect x="582.952" y="155.063" transform="matrix(0.7854 -0.6189 0.6189 0.7854 17.9324 417.1028)" display="none" fill="#B8529E" width="55.248" height="55.247"/>
			
				<line fill="none" stroke="#FF00FF" stroke-width="6" stroke-miterlimit="10" x1="606.928" y1="209.04" x2="526.897" y2="792.429"/>
			<path fill="#FF00FF" d="M591.115,180.393l21.731-17.124l17.123,21.73l-21.731,17.123L591.115,180.393z M605.942,221.491
				l43.397-34.195L615.142,143.9l-43.397,34.197L605.942,221.491z"/>
		</g>
	</g>
	<polygon fill="#FF00FF" points="552.077,726.039 572.937,744.597 552.201,763.264 531.341,744.706 	"/>
	
		<rect x="251.079" y="235.549" transform="matrix(0.435 0.9004 -0.9004 0.435 364.104 -95.3198)" fill="#FF00FF" width="13.858" height="13.858"/>
	
		<rect x="319.654" y="224.462" transform="matrix(0.5577 0.83 -0.83 0.5577 336.5024 -168.734)" fill="#FF00FF" width="13.858" height="13.858"/>
	
		<rect x="392.413" y="225.751" transform="matrix(0.7092 0.705 -0.705 0.7092 280.1672 -213.875)" fill="#FF00FF" width="13.858" height="13.858"/>
	
		<rect x="469.87" y="234.253" transform="matrix(0.7092 0.705 -0.705 0.7092 308.6854 -266.0105)" fill="#FF00FF" width="13.858" height="13.858"/>
	
		<rect x="535.883" y="244.053" transform="matrix(0.7092 0.705 -0.705 0.7092 334.7907 -309.6999)" fill="#FF00FF" width="13.858" height="13.858"/>
	<polygon fill="#FF00FF" points="473.265,732.497 494.125,751.055 473.388,769.723 452.529,751.165 	"/>
	<polygon fill="#FF00FF" points="329.454,729.47 350.315,748.027 329.578,766.695 308.718,748.137 	"/>
	<polygon fill="#FF00FF" points="410.801,730.345 431.661,748.902 410.924,767.57 390.065,749.012 	"/>
	<polygon fill="#FF00FF" points="253.635,718.505 267.15,741.884 241.026,753.979 227.511,730.6 	"/>
	<g id="Layer_6_copy">
		<path fill="#FFFFFF" stroke="#000000" stroke-width="3" stroke-miterlimit="10" d="M394.194,301.389l11.071,142.401l9.206,128.741
			l-16.172,38.477c0,0,1.049,88.891,1.049,101.488c28.009,34.171,35.401,73.468,35.401,73.468"/>
	</g>
</g>
</svg>
